<svg xmlns="http://www.w3.org/2000/svg" viewBox="0 0 512 512" width="512" height="512">
  <rect width="512" height="512" rx="100" fill="#0f766e" />
  <circle cx="256" cy="256" r="180" fill="#115e59" opacity="0.4" />
  <path d="M140 120 h232 c16 0 28 12 28 28 v236 c0 16 -12 28 -28 28 h-232 c-16 0 -28 -12 -28 -28 v-236 c0 -16 12 -28 28 -28 z" fill="#ffffff" />
  <rect x="180" y="165" width="152" height="24" rx="6" fill="#0f766e" />
  <rect x="180" y="210" width="100" height="16" rx="4" fill="#94a3b8" />
  <rect x="180" y="242" width="152" height="16" rx="4" fill="#cbd5e1" />
  <rect x="180" y="274" width="120" height="16" rx="4" fill="#cbd5e1" />
  <line x1="170" y1="315" x2="342" y2="315" stroke="#e2e8f0" stroke-width="2" stroke-dasharray="4 4" />
  <circle cx="220" cy="355" r="18" fill="#0d9488" />
  <text x="220" y="361" font-family="sans-serif" font-size="16" font-weight="bold" fill="#ffffff" text-anchor="middle">฿</text>
  <rect x="250" y="346" width="82" height="18" rx="4" fill="#0f766e" />
</svg>
